<?xml version="1.0" encoding="utf-8"?>
<!-- Generator: Adobe Illustrator 19.2.0, SVG Export Plug-In . SVG Version: 6.00 Build 0)  -->
<svg version="1.1" id="Слой_2" xmlns="http://www.w3.org/2000/svg" xmlns:xlink="http://www.w3.org/1999/xlink" x="0px" y="0px"
	 viewBox="0 0 222 66.7" style="enable-background:new 0 0 222 66.7;" xml:space="preserve">
<style type="text/css">
	.st0{fill:#FFFFFF;}
</style>
<g>
	<g>
		<path class="st0" d="M104.4,30.5c0-1.1-0.6-1.8-2-1.8c-1.4,0-2.7,0.7-4.2,2.2c-1.4,1.4-2.4,3-3.1,4.8c-0.1,0.3-0.3,0.6-0.5,1.1
			c-0.1,0.2-0.1,0.6-0.2,1.2c-0.6,0.8-1.3,1.4-1.9,1.9L89.7,42c-0.2,0.2-2.1,1.4-5.5,3.5c-0.7,0.4-1.1,0.8-1.4,1.1
			c-0.6,0.2-1.3,0.6-2.3,1.1l-4.8,2.4l-5.2,2.4c-1.7,0.8-2.8,1.2-3.2,1.2v-0.1c0-0.1,0-0.2,0.1-0.3c0-0.2,0.5-1.3,1.5-3.3l2.7-5.5
			c1.7-3.2,3.3-6.6,3.5-7.7c0.2-1.2-0.5-2.7-2-2.5c-1.2,0-4.5,1.3-6.8,3l-3.7,2.8l0.7-1.4c0.6-1.4,1.2-2.5,1.7-3.2
			c0.2-0.4,0.6-1.1,1.4-2.2c1-1.5,1.5-2.4,1.5-2.7c0.2-1.2-0.4-2-1.5-1.7c-0.4,0.1-1,0.8-1.9,2.3l-2.7,4.2l-1.9,3.2
			c-0.4,0.6-1,1.7-1.9,3.1l-3.1,4.8c-0.1,0-0.2-0.1-0.4-0.1c-0.1-0.1-1.4,0.6-3.7,1.8c-1.2,0.6-1.9,1.1-2.2,1.2l-0.9,0.4
			c1-1,1.8-1.9,2.3-2.5c0.4-0.4,0.8-1.1,1.3-1.9c1.3-2.2,2.2-3.7,2.6-4.5c1.4-2.9,1.4-4.1,1.4-4.9c0-2.4-1.2-3.6-3.4-3.6
			c-1.2-0.1-3,0.4-5.3,1.7c-1.2,0.7-2.5,1.7-3.9,2.7c-1.4,1.1-2.1,1.7-2.2,2.1c0,0.2,0,0.4-0.1,0.6c-1.4,1.4-2.7,2.7-3.8,4
			c-0.4,0.4-0.7,0.8-1,1.1c-0.2,0-0.3,0-0.4,0.1l-3.7,2.4l-5.8,3.5c-2.6,1.4-5.1,2.7-7.6,3.7c-2.4,0.9-4.1,1.4-5.2,1.4
			c-2.1,0-3-1.8-3-3.5c0-3.4,1.5-8.4,4.1-13.5c0.4-0.8,1.2-2.2,2.4-4.4c1.7-3.2,4.8-8.8,8.5-13.7c2.4-3.2,4.8-5.8,7-7.6
			c1.9-1.7,4.2-2.3,7.1-2.3c1.4,0,1.9,1.4,1.9,3.4c0,0.6-0.9,2.4-2.6,5.5c-1.7,3.1-2.5,4.8-2.5,5.3c0,1.4,1.4,2.2,2.6,2.2
			c0.7,0,1.7-1,3.1-3.1c1.1-1.7,2.3-3.8,3.6-6.5c0.8-1.7,1.7-3.6,2.5-5.6c0.2-0.6,0.6-1.4,1-2.4c0-0.9-1.2-1.6-2.2-1.6
			c-0.3,0-0.7,0.4-1.2,1.3c-0.5,0.9-0.9,1.4-1.4,1.7l-1.4-2.7c-0.6-0.8-1.7-1.2-3.2-1.2c-1.7,0-3.7,0.5-6,1.4
			c-2.2,0.9-4.2,2.2-5.7,3.8c-1.5,1.5-3.2,3.5-4.9,5.8c-1.5,2.1-3.2,4.6-5,7.4L14,31.5c-0.6,1-1.5,2.7-2.7,5.2
			c-1.4,2.8-2.7,5.7-3.7,8.6c-1,3-1.5,5.1-1.5,6.5c0,2.6,0.8,4.5,2.3,5.9c1.2,1.1,2.6,1.6,4.1,1.6c1.8,0,4-0.6,6.7-1.9
			c1.5-0.7,4.1-2.1,7.7-4.2c1.4-0.8,2.7-1.6,4-2.4c-0.2,0.4-0.4,0.7-0.6,1.1c-0.9,1.7-1.3,3-1.3,4.2c-0.2,1.9,0.6,3.3,2.7,3.3
			c0.6,0.1,1.9-0.2,3.9-0.9c2-0.6,4-1.5,6.1-2.5c2.8-1.2,5.8-2.8,8.9-4.8c0.7-0.4,1.4-0.8,2-1.2l-1.3,2.1l-1.7,2.4
			c-0.9,1.4-1.4,2.4-1.4,2.7c-0.1,0.3-0.1,0.5-0.1,0.6c0,0.8,0.5,1.1,1.4,0.9c0.5-0.1,1.4-0.9,2.6-2.5l1.8-2.4
			c0.5-0.6,1.2-1.5,2.1-2.7c2.5-3.4,4.6-5.4,7.5-7.9l3.7-3c0.4-0.2,1.1-0.6,2-1.3c1.3-0.9,2-1.2,2.2-1.1v0.6
			c-0.3,1.2-1.2,2.8-3.5,7.1L65,51c-0.9,1.8-1.4,3.1-1.7,3.8c-0.1,0.7-0.2,1.2-0.2,1.3c0,0.6,0.4,1.2,1,1.5c0.3,0.1,0.6,0.2,1,0.1
			c0.6,0,2.2-0.6,4.7-1.7c2.5-1.2,4.8-2.4,6.8-3.5c1.5-0.8,2.9-1.4,4-2.1c1.9-1,3.2-1.7,3.8-2.3c1.1-0.4,2.9-1.4,5.1-2.6l2.7-1.7
			c0.9-0.5,1.7-1.1,2.4-1.7c0,0.9,0.3,2.7,0.5,3.8c0.1,0.6,0.3,1.4,0.5,2.6c0.3,1.2,0.4,1.9,0.4,2.4c-0.1,0.9-0.9,1.7-2.2,2.4
			c-1.3,0.7-7.3,2.5-8.8,2.5h-2c-1.4,0-2.2,0.5-2.4,1.4c-0.1,0.9,0.3,1.4,1.4,1.5h1.7c0.7,0,2.1-0.2,4.1-0.7
			c2.1-0.4,3.7-0.9,4.9-1.3c3.7-1.4,6.4-3.5,6.4-5.5c0.1-1.4-0.3-3.3-0.9-6c-0.5-2.8-0.6-4.2-0.6-5.1l0.3-1.6c1.5-1.2,2.7-2.2,3.6-3
			c1.7-1.5,2.6-2.9,2.8-4C104.4,31.3,104.4,30.9,104.4,30.5z M32.3,56.6c-0.2-0.1-0.4-0.3-0.4-0.8c0.1-0.4,0.3-0.8,0.6-1.1l0.3,0.9
			l0.4,0.6C32.8,56.4,32.5,56.6,32.3,56.6z M42.1,51.1c-2.3,1.9-4.8,3.5-6,3.7c-0.2-0.1-0.6-0.5-0.9-1.1c-0.5-0.5-0.6-1-0.6-1.6
			c0.3-1.8,2.8-4.5,5.4-6.6c2.7-2.1,5-4.7,5-5.3c0.1-0.5-0.1-0.9-0.7-1.1c0.7-0.8,1.6-1.6,2.7-2.3c1.5-1.1,2.7-1.6,3.7-1.6
			c0.6,0,1.1,0.2,1.4,0.7c0.1,0.2,0.2,0.6,0.2,1.1c-0.3,2.5-2.8,6.6-5.9,9.9C45.2,48.4,43.8,49.8,42.1,51.1z M100.1,33.5l-1.5,1.6
			c0.3-1.1,1.6-2.7,1.9-3c0.2-0.2,0.4-0.4,0.6-0.4l0.1,0.3C101.2,32.1,100.5,33,100.1,33.5z M175.6,28v0.9c0,0.8,0.4,1.2,1.3,1.2
			c0.5,0,1.1-0.9,1.6-2.7c0.5-1.8,0.7-3.1,0.6-3.8c0-1.2-0.4-2-1.7-2c-0.9,0-2.6,1.9-2.7,3.4C174.8,26.3,175.7,27.1,175.6,28z
			 M213.9,28.9c-1.4,0-2.7,0.8-4.1,2.4c-1.3,1.5-2.3,3.1-2.9,4.9c-0.1,0.3-0.3,0.7-0.5,1.1c-0.1,0.2-0.1,0.5-0.2,1.2
			c-0.6,0.8-0.7,1-1.2,1.7l-2.1,2.5c-0.2,0.2-0.8,1.3-4.1,3.5c-0.8,0.6-2.8,1.8-3.6,2.4c-0.4,0.2-0.9,0.4-1.4,0.7l-5.8,3
			c-1.5,0.8-2.8,1.5-4,2c-2.4,1.2-4,1.7-4.7,1.7l-0.3-0.4c0.1-1.2,1.5-3.4,4.2-6.5c3.1-3.5,5.3-6,8.4-8.9c1.2-1.1,2.4-2.1,3.5-3
			l1.9-1.2c1.1-0.8,1.7-1.3,1.8-1.7c0.3-0.9,0.1-1.8-0.9-1.8c-0.6-0.1-1.6,0.2-3,0.9c-2.2,1.2-2.7,1.4-4.8,2.2l-2.2,0.7
			c-1.3,0.4-2.2,0.6-2.6,0.6c-0.4,0-0.4-0.4-0.4-1c0-0.1,0.1-0.4,0.4-1c0.5-1.1,0.8-1.9,0.9-2.2c0-0.6-0.6-1.4-1.2-1.3
			c-0.8,0.1-2.6,2.2-4,3.6l-2.2,2.2c-1.2,1.2-1.7,1.7-1.6,2.2c-0.1,0.7,0.3,1.1,1.2,1.1c0.1,0,0.6-0.4,1.4-1
			c0.9-0.7,1.5-1.3,1.9-1.8c0.9,1.4,2.1,2,3.3,2c0.6,0,1.7-0.2,3.6-0.8c-0.8,0.9-3.9,3.6-7.6,7.7c-0.5,0.6-1,1.2-1.5,1.8
			c-0.2-0.2-0.4-0.4-0.7-0.3c-0.4,0-1.4,0.4-3.2,1.2c-2.7,1.2-4.4,2-5,2.2c-4,1.7-7.4,2.9-9.2,2.9c-0.8,0-1.2-0.2-1.2-0.7
			c0.3-1.7,1.2-4,2.6-6c1.2-2.1,2.9-4.3,4.8-6.8l4.3-5.4c0-1.1-0.5-1.8-1.7-2c-0.4-0.1-1.4,0.9-3,2.7c-1.7,1.8-3.1,3.5-4.2,5.1
			c-1.2,1.8-2.2,3.3-2.9,4.5c-0.1,0-0.1,0-0.2,0c-0.2,0-1.2,0.6-3,1.7c-1.7,1.1-3.3,2-4.8,2.9c-1.4,0.8-3,1.6-4.5,2.3
			c-1.5,0.6-2.5,1-3,1c-0.2,0-0.4-0.2-0.4-0.7c0-0.6,0.4-2,1.2-3c0.6-0.9,1.7-2.2,3.1-3.8c1.8-2.2,3.2-3.7,4.4-4.8l2.1-1.7
			c0.9-0.8,1.3-1.8,1.3-3c0-0.9-0.8-1.7-1.4-1.7c-0.5,0-1.4,0.7-2.2,1.7l-1.5,1.2c-0.1-0.8-0.3-1.9-0.4-2.3
			c-0.6-1.9-2.3-3.3-3.5-3.3c-2.6,0-5.4,1.2-8.5,3.4c-2.5,1.8-4.9,4.2-7.2,7.1c-1.8,2.4-3.1,4.3-4,6c-0.1,0.1-0.1,0.3-0.2,0.4
			c-0.3,0.1-0.6,0.3-0.9,0.5c-3.9,1.9-6.4,3.2-7.6,3.7c-4.3,1.7-8.6,3.1-9.7,3.1c-0.6,0-0.9-0.1-0.9-0.5c0-1,0.4-2.5,1.3-4.5
			c0.9-2,1.8-3.9,2.9-5.6c1.1-1.8,2.4-3.7,3.9-5.8c0.2-0.4,1.6-2.1,4-5.3l5.9-0.4c1.1,0,3.5,0.3,4.3,0.3c0.6,0,1.3-0.6,1.7-1.5
			c0.5-1.1-2.3-1.6-4.6-1.6h-3.3l3.4-3.5l2.4-2.7l1.3-1.7c1.2-1.7,2.2-3.5,3.2-5.4c0.9-1.9,1.4-3.2,1.4-3.7c0-1.2-1.1-2-1.9-1.8
			c-0.7,0-1.9,0.7-3.5,2.1c-1.8,1.6-3.5,3.5-5.2,5.9c-1.2,1.7-2.4,3.7-3.8,6l-3,5.2c-0.9,0.1-4,0.4-6.1,0.8l-5.1,0.8
			c-2.4,0.4-3.7,0.9-4,1.7c-0.3,0.8,0.4,1.9,1.3,1.7c2.5-0.5,5.2-1,6.9-1.2c1.7-0.3,3.2-0.4,4.5-0.4l-4.6,6.5
			c-1.9,2.9-3.5,5.5-4.6,8c-1.4,2.8-2.1,5.2-2.3,7c-0.3,2.1,1.7,3,4.2,3c1.4,0,5.4-1.4,10.2-3.5c2.3-1,4.6-2.1,7-3.4
			c-0.1,0.6-0.2,1.1-0.2,1.6c0,2.4,0.6,3.6,2.7,3.6c1.3,0,2.9-0.4,4.8-1.3c0.5-0.2,1.9-0.9,4.2-2.2l3.2-1.9l-0.1,1.1
			c0,1.7,0.9,3.2,3.2,3.2c0.9,0,2.1-0.3,3.5-0.9c1.4-0.6,3.8-1.9,7.1-3.8c1-0.5,2-1.2,3.2-2c-0.7,1.6-1,2.9-1,3.9
			c0,2.9,1.4,3.6,4.2,3.6c2,0,6.5-1.6,10.7-3.6l4.1-1.9c0.6-0.3,1.1-0.5,1.5-0.8c-1.4,2.1-2.1,3.9-2.1,5c-0.2,1.9,0.7,2.9,2.8,2.9
			c0.4,0,0.9-0.1,1.5-0.1c0.6-0.1,1.9-0.6,3.8-1.5c0.4-0.2,2.2-1.2,5.5-2.8l5.9-3.2c0.4-0.2,0.8-0.5,1.1-0.7c1-0.3,2.6-1.6,4-2.6
			c2.2-1.7,3.7-3,4.2-3.5c1.1-1.1,1.5-1.6,2.2-2.3c0,0.9,0.4,2.7,0.6,3.8c0.1,0.6,0.3,1.4,0.6,2.6c0.3,1.1,0.5,1.9,0.5,2.4
			c0,0.9-0.8,1.8-2.1,2.5c-1.3,0.8-7.2,2.8-8.7,2.8l-2,0.1c-1.4,0-2.1,0.6-2.3,1.5c-0.1,0.9,0.3,1.4,1.4,1.5l1.7-0.1
			c0.7,0,2.1-0.3,4.1-0.9c2.1-0.5,3.6-1,4.8-1.5c3.7-1.6,6.3-3.7,6.2-5.7c0-1.4-0.4-3.3-1.1-5.9c-0.6-2.8-0.8-4.2-0.8-5.1l0.2-1.6
			c1.5-1.2,2.6-2.3,3.5-3.1c1.6-1.6,2.5-3,2.7-4.1c0.1-0.5,0.2-0.9,0.2-1.3C215.9,29.5,215.2,28.8,213.9,28.9z M126.4,24.8l2.1-3
			c0.9-1.4,2.1-3,3.3-3.9c-0.3,1.2-1.4,3-2.3,4.2c-0.8,1.2-1.6,2.2-2.3,3c-1.1,1.3-1.9,2.2-2.6,2.7
			C124.8,27.4,125.4,26.3,126.4,24.8z M137,51.8c-1.3,0.8-2.7,1.5-4.1,2.2c-1.4,0.6-2.3,1-2.7,1c-0.5,0-0.6-0.4-0.6-1.1
			c0-1.4,0.7-3.2,2.2-5.4c0.9-1.4,2.2-3.2,4.2-5.5c1.7-2.2,3.5-4,5.5-5.3c2-1.4,3.7-2.1,5-1.9c1.2,0.3,1.1,1.4,1.4,3.7
			c-0.5,0.9-1.4,2.3-2.2,3.5c-0.3,0.5-0.9,2.2-1.2,2.7C143,47.7,140.5,49.8,137,51.8z M211.7,33.8l-1.5,1.6c0.2-1.1,1.5-2.7,1.8-3.1
			c0.2-0.2,0.4-0.4,0.6-0.4l0.1,0.3C212.8,32.3,212.1,33.2,211.7,33.8z"/>
	</g>
</g>
</svg>
