<?xml version="1.0" encoding="UTF-8" standalone="no"?>
<!-- Created with Inkscape (http://www.inkscape.org/) -->

<svg
   xmlns:dc="http://purl.org/dc/elements/1.1/"
   xmlns:cc="http://creativecommons.org/ns#"
   xmlns:rdf="http://www.w3.org/1999/02/22-rdf-syntax-ns#"
   xmlns:svg="http://www.w3.org/2000/svg"
   xmlns="http://www.w3.org/2000/svg"
   xmlns:sodipodi="http://sodipodi.sourceforge.net/DTD/sodipodi-0.dtd"
   xmlns:inkscape="http://www.inkscape.org/namespaces/inkscape"
   id="svg5308"
   version="1.1"
   inkscape:version="0.91 r13725"
   width="150"
   height="150"
   viewBox="0 0 150 150"
   sodipodi:docname="logosvgwh.svg">
  <metadata
     id="metadata5314">
    <rdf:RDF>
      <cc:Work
         rdf:about="">
        <dc:format>image/svg+xml</dc:format>
        <dc:type
           rdf:resource="http://purl.org/dc/dcmitype/StillImage" />
        <dc:title></dc:title>
      </cc:Work>
    </rdf:RDF>
  </metadata>
  <defs
     id="defs5312" />
  <sodipodi:namedview
     pagecolor="#ffffff"
     bordercolor="#666666"
     borderopacity="1"
     objecttolerance="10"
     gridtolerance="10"
     guidetolerance="10"
     inkscape:pageopacity="0"
     inkscape:pageshadow="2"
     inkscape:window-width="1536"
     inkscape:window-height="801"
     id="namedview5310"
     showgrid="false"
     inkscape:zoom="1.3350176"
     inkscape:cx="153.36246"
     inkscape:cy="143.68882"
     inkscape:window-x="-8"
     inkscape:window-y="-8"
     inkscape:window-maximized="1"
     inkscape:current-layer="svg5308" />
  <g
     id="g5860"
     transform="matrix(0.20900346,0,0,0.20900346,-23.622167,-24.032573)"
     style="fill:#f9f9f9;fill-opacity:1">
    <path
       style="fill:#f9f9f9;fill-opacity:1"
       d="m 439.93403,806.09651 c -1.1,-0.4838 -4.30592,-0.9112 -7.12427,-0.9498 -2.81835,-0.039 -7.03743,-0.7453 -9.37573,-1.5703 -2.3383,-0.825 -6.41832,-1.5 -9.06671,-1.5 -2.64839,0 -5.09337,-0.45 -5.43329,-1 -0.33992,-0.55 -2.53047,-1 -4.86789,-1 -2.33742,0 -5.12336,-0.6607 -6.19098,-1.4682 -1.06762,-0.8075 -3.82707,-1.4825 -6.13211,-1.5 -2.30504,-0.017 -4.4691,-0.4818 -4.80902,-1.0318 -0.33992,-0.55 -1.82898,-1.0159 -3.30902,-1.0354 -1.48004,-0.019 -3.81598,-0.6786 -5.19098,-1.4646 -1.375,-0.786 -3.71094,-1.4451 -5.19098,-1.4646 -1.48004,-0.019 -2.9691,-0.4854 -3.30902,-1.0354 -0.33992,-0.55 -1.88638,-1 -3.43657,-1 -1.5502,0 -3.37874,-0.675 -4.06343,-1.5 -0.68469,-0.825 -2.0959,-1.5 -3.13601,-1.5 -1.89759,0 -2.5366,-0.2448 -8.69503,-3.3308 -1.83207,-0.9181 -3.97568,-1.6692 -4.76357,-1.6692 -1.31052,0 -3.41821,-0.8999 -7.40539,-3.1618 -0.825,-0.468 -2.175,-1.1094 -3,-1.4253 -3.97986,-1.524 -22.54074,-11.0046 -22.83333,-11.6629 -0.18334,-0.4125 -1.14074,-0.75 -2.12756,-0.75 -0.98682,0 -2.35442,-0.675 -3.03911,-1.5 -0.68469,-0.825 -1.64944,-1.5 -2.14388,-1.5 -1.1247,0 -9.23744,-5.233 -9.68945,-6.25 -0.18334,-0.4125 -1.1174,-0.75 -2.07569,-0.75 -0.95829,0 -2.79923,-1.125 -4.09098,-2.5 -1.29175,-1.375 -2.83728,-2.5 -3.43453,-2.5 -0.59725,0 -2.29917,-1.125 -3.78204,-2.5 -1.48288,-1.375 -3.06153,-2.5 -3.50812,-2.5 -0.44658,0 -2.99022,-1.8 -5.65252,-4 -2.66231,-2.2 -5.12906,-4.015 -5.48167,-4.0334 -0.35262,-0.018 -2.89112,-2.0776 -5.64112,-4.5761 -2.75,-2.4984 -6.19602,-5.2559 -7.65783,-6.1277 -3.36024,-2.004 -34.43235,-33.4098 -38.35097,-38.7628 -1.6105,-2.2 -3.994,-5.125 -5.29668,-6.5 -1.30267,-1.375 -3.40051,-4.075 -4.66186,-6 -1.26135,-1.925 -3.4722,-4.5909 -4.91301,-5.9243 -1.44081,-1.3334 -2.61965,-2.9552 -2.61965,-3.604 0,-0.6488 -1.125,-2.3935 -2.5,-3.8772 -1.375,-1.4836 -2.5,-2.9694 -2.5,-3.3016 0,-0.3323 -1.125,-2.0791 -2.5,-3.8818 -1.375,-1.8027 -2.5,-3.6027 -2.5,-4 0,-0.3973 -1.125,-2.1973 -2.5,-4 -1.375,-1.8027 -2.5,-3.5543 -2.5,-3.8924 0,-0.3381 -1.4896,-2.9557 -3.31022,-5.8167 -1.82062,-2.8611 -4.76623,-8.127 -6.54579,-11.702 -1.77956,-3.575 -3.59502,-7.175 -4.03435,-8 -2.61906,-4.91819 -3.10964,-6.15883 -3.10964,-7.86399 0,-1.04011 -0.675,-2.45132 -1.5,-3.13601 -0.825,-0.68469 -1.5,-1.8709 -1.5,-2.63601 0,-0.76512 -0.4038,-2.17252 -0.89734,-3.12756 -0.49354,-0.95504 -1.66474,-3.76143 -2.60266,-6.23643 -0.93792,-2.475 -2.10912,-5.28139 -2.60266,-6.23643 -0.49354,-0.95504 -0.89734,-2.58744 -0.89734,-3.62756 0,-1.04011 -0.675,-2.45132 -1.5,-3.13601 -0.825,-0.68469 -1.5,-2.51323 -1.5,-4.06343 0,-1.55019 -0.45,-3.09665 -1,-3.43657 -0.55,-0.33992 -1.01595,-1.82898 -1.03544,-3.30902 -0.0195,-1.48004 -0.67854,-3.81598 -1.46456,-5.19098 -0.78602,-1.375 -1.44508,-3.71094 -1.46456,-5.19098 -0.0195,-1.48004 -0.48544,-2.9691 -1.03544,-3.30902 -0.55,-0.33992 -1,-2.19606 -1,-4.12476 0,-1.9287 -0.54011,-4.48964 -1.20023,-5.69098 -1.18628,-2.15887 -2.19219,-7.51053 -3.60591,-19.18426 -0.39964,-3.3 -1.12033,-6.6224 -1.60153,-7.38312 -3.88857,-6.14733 -3.88857,-94.08643 0,-100.23376 0.4812,-0.76072 1.20189,-4.08312 1.60153,-7.38312 1.56345,-12.91014 2.45946,-17.55332 3.60917,-18.70303 0.65833,-0.65833 1.19697,-3.10541 1.19697,-5.43795 0,-2.33254 0.45,-4.5191 1,-4.85902 0.55,-0.33992 1.01595,-1.82898 1.03544,-3.30902 0.0195,-1.48004 0.67854,-3.81598 1.46456,-5.19098 0.78602,-1.375 1.44508,-3.71094 1.46456,-5.19098 0.0195,-1.48004 0.48544,-2.9691 1.03544,-3.30902 0.55,-0.33992 1,-1.88638 1,-3.43657 0,-1.5502 0.675,-3.37874 1.5,-4.06343 0.825,-0.68469 1.5,-2.0959 1.5,-3.13601 0,-1.04012 0.4038,-2.67252 0.89734,-3.62756 0.49354,-0.95504 1.66474,-3.76143 2.60266,-6.23643 0.93792,-2.475 2.10912,-5.28139 2.60266,-6.23643 0.49354,-0.95504 0.89734,-2.36244 0.89734,-3.12756 0,-0.76511 0.675,-1.95132 1.5,-2.63601 0.825,-0.68469 1.5,-2.0959 1.5,-3.13601 0,-1.70516 0.49058,-2.9458 3.10964,-7.86399 0.43933,-0.825 2.25479,-4.425 4.03435,-8 1.77956,-3.575 4.72517,-8.84088 6.54579,-11.70196 1.82062,-2.86108 3.31022,-5.47861 3.31022,-5.81673 0,-0.33811 1.125,-2.0897 2.5,-3.89242 1.375,-1.80272 2.5,-3.60272 2.5,-4 0,-0.39728 1.125,-2.19728 2.5,-4 1.375,-1.80272 2.5,-3.54951 2.5,-3.88176 0,-0.33225 1.125,-1.81798 2.5,-3.30163 1.375,-1.48365 2.5,-3.22839 2.5,-3.87721 0,-0.64881 1.17884,-2.2706 2.61965,-3.60398 1.44081,-1.33337 3.65166,-3.99931 4.91301,-5.92431 1.26135,-1.925 3.35919,-4.625 4.66186,-6 1.30268,-1.375 3.68618,-4.3 5.29668,-6.5 3.91862,-5.35299 34.99073,-36.75876 38.35097,-38.7628 1.46181,-0.87181 4.90783,-3.62929 7.65783,-6.12773 2.75,-2.49844 5.2885,-4.55766 5.64112,-4.57604 0.35261,-0.0184 2.81936,-1.83343 5.48167,-4.03343 2.6623,-2.2 5.20594,-4 5.65252,-4 0.44659,0 2.02524,-1.125 3.50812,-2.5 1.48287,-1.375 3.18479,-2.5 3.78204,-2.5 0.59725,0 2.14278,-1.125 3.43453,-2.5 1.29175,-1.375 3.13269,-2.5 4.09098,-2.5 0.95829,0 1.89235,-0.3375 2.07569,-0.75 0.45201,-1.01703 8.56475,-6.25 9.68945,-6.25 0.49444,0 1.45919,-0.675 2.14388,-1.5 0.68469,-0.825 2.05229,-1.5 3.03911,-1.5 0.98682,0 1.94422,-0.3375 2.12756,-0.75 0.18333,-0.4125 5.28333,-3.16698 11.33333,-6.12106 6.05,-2.95408 11.675,-5.76944 12.5,-6.25636 0.825,-0.48692 2.175,-1.14029 3,-1.45194 0.825,-0.31165 2.28139,-0.98379 3.23643,-1.49364 0.95504,-0.50985 2.38107,-0.927 3.16896,-0.927 0.78789,0 2.9315,-0.75114 4.76357,-1.6692 6.15843,-3.08601 6.79744,-3.3308 8.69503,-3.3308 1.04011,0 2.45132,-0.675 3.13601,-1.5 0.68469,-0.825 2.51323,-1.5 4.06343,-1.5 1.55019,0 3.09665,-0.45 3.43657,-1 0.33992,-0.55 1.82898,-1.01595 3.30902,-1.03544 1.48004,-0.0195 3.81598,-0.67854 5.19098,-1.46456 1.375,-0.78602 3.71094,-1.44508 5.19098,-1.46456 1.48004,-0.0195 2.9691,-0.48544 3.30902,-1.03544 0.33992,-0.55 2.27898,-1.01595 4.30902,-1.03544 2.03004,-0.0195 4.81598,-0.67854 6.19098,-1.46456 1.375,-0.78602 4.38594,-1.44508 6.69098,-1.46456 2.30504,-0.0195 4.4691,-0.48544 4.80902,-1.03544 0.33992,-0.55 2.81218,-1 5.49392,-1 2.68173,0 6.14268,-0.50556 7.69098,-1.12347 5.87488,-2.3446 19.86639,-3.22352 51.3151,-3.22352 31.44871,0 45.44022,0.87892 51.3151,3.22352 1.5483,0.61791 5.00925,1.12347 7.69098,1.12347 2.68174,0 5.154,0.45 5.49392,1 0.33992,0.55 2.50398,1.01595 4.80902,1.03544 2.30504,0.0195 5.31598,0.67854 6.69098,1.46456 1.375,0.78602 4.16094,1.44508 6.19098,1.46456 2.03004,0.0195 3.9691,0.48544 4.30902,1.03544 0.33992,0.55 1.82898,1.01595 3.30902,1.03544 1.48004,0.0195 3.81598,0.67854 5.19098,1.46456 1.375,0.78602 3.71094,1.44508 5.19098,1.46456 1.48004,0.0195 2.9691,0.48544 3.30902,1.03544 0.33992,0.55 1.88638,1 3.43657,1 1.5502,0 3.37874,0.675 4.06343,1.5 0.68469,0.825 2.0959,1.5 3.13601,1.5 1.89759,0 2.5366,0.24479 8.69503,3.3308 1.83207,0.91806 3.97568,1.6692 4.76357,1.6692 1.31052,0 3.41821,0.89989 7.40539,3.16179 0.825,0.46802 2.175,1.10941 3,1.42532 3.97986,1.52397 22.54074,11.00456 22.83333,11.66289 0.18334,0.4125 1.14074,0.75 2.12756,0.75 0.98682,0 2.35442,0.675 3.03911,1.5 0.68469,0.825 1.64944,1.5 2.14388,1.5 1.1247,0 9.23744,5.23297 9.68945,6.25 0.18334,0.4125 1.1174,0.75 2.07569,0.75 0.95829,0 2.79923,1.125 4.09098,2.5 1.29175,1.375 2.83728,2.5 3.43453,2.5 0.59725,0 2.29917,1.125 3.78204,2.5 1.48288,1.375 3.06153,2.5 3.50812,2.5 0.44658,0 2.99022,1.8 5.65252,4 2.66231,2.2 5.12906,4.01504 5.48167,4.03343 0.35262,0.0184 2.89112,2.0776 5.64112,4.57604 2.75,2.49844 6.19602,5.25592 7.65783,6.12773 2.98953,1.78295 35.84217,34.50567 35.84217,35.70043 0,0.69891 5.33364,7.26998 16.00683,19.7205 2.19624,2.56197 3.99317,5.08376 3.99317,5.60398 0,0.52021 1.125,2.15974 2.5,3.64339 1.375,1.48365 2.5,2.96938 2.5,3.30163 0,0.33225 1.125,2.07904 2.5,3.88176 1.375,1.80272 2.5,3.60272 2.5,4 0,0.39728 1.125,2.19728 2.5,4 1.375,1.80272 2.5,3.55431 2.5,3.89242 0,0.33812 1.46791,2.95565 3.26202,5.81673 1.79411,2.86108 4.74197,8.12696 6.55079,11.70196 1.80882,3.575 3.64596,7.175 4.08255,8 2.65015,5.00791 3.10464,6.15912 3.10464,7.86399 0,1.04011 0.675,2.45132 1.5,3.13601 0.825,0.68469 1.5,2.06323 1.5,3.06343 0,1.00019 0.45,2.09665 1,2.43657 0.55,0.33992 1,1.45501 1,2.47798 0,1.02297 0.75114,3.35891 1.6692,5.19098 3.08601,6.15843 3.3308,6.79744 3.3308,8.69503 0,1.04011 0.675,2.45132 1.5,3.13601 0.825,0.68469 1.5,2.51323 1.5,4.06343 0,1.55019 0.45,3.09665 1,3.43657 0.55,0.33992 1.01595,1.82898 1.03544,3.30902 0.0195,1.48004 0.67854,3.81598 1.46456,5.19098 0.78602,1.375 1.44508,3.71094 1.46456,5.19098 0.0195,1.48004 0.48544,2.9691 1.03544,3.30902 0.55,0.33992 1,2.19606 1,4.12476 0,1.9287 0.54011,4.48964 1.20023,5.69098 1.18628,2.15887 2.19219,7.51053 3.60591,19.18426 0.39964,3.3 1.11718,6.6173 1.59452,7.37179 3.91934,6.19478 3.91934,94.06164 0,100.25642 -0.47734,0.75449 -1.19488,4.07179 -1.59452,7.37179 -1.41372,11.67373 -2.41963,17.02539 -3.60591,19.18426 -0.66012,1.20134 -1.20023,3.76228 -1.20023,5.69098 0,1.9287 -0.45,3.78484 -1,4.12476 -0.55,0.33992 -1.01595,1.82898 -1.03544,3.30902 -0.0195,1.48004 -0.67854,3.81598 -1.46456,5.19098 -0.78602,1.375 -1.44508,3.71094 -1.46456,5.19098 -0.0195,1.48004 -0.48544,2.9691 -1.03544,3.30902 -0.55,0.33992 -1,1.88638 -1,3.43657 0,1.5502 -0.675,3.37874 -1.5,4.06343 -0.825,0.68469 -1.5,2.0959 -1.5,3.13601 0,1.89759 -0.24479,2.5366 -3.3308,8.69503 -0.91806,1.83207 -1.6692,4.11005 -1.6692,5.06217 0,0.95212 -0.84077,3.50315 -1.86839,5.66896 -1.02761,2.16581 -2.64006,5.73783 -3.58322,7.93783 -0.94315,2.2 -2.10453,4.675 -2.58083,5.5 -0.47629,0.825 -2.34593,4.425 -4.15475,8 -1.80882,3.575 -4.75668,8.8409 -6.55079,11.702 -1.79411,2.861 -3.26202,5.4786 -3.26202,5.8167 0,0.3381 -1.125,2.0897 -2.5,3.8924 -1.375,1.8027 -2.5,3.6027 -2.5,4 0,0.3973 -1.125,2.1973 -2.5,4 -1.375,1.8027 -2.5,3.5495 -2.5,3.8818 0,0.3322 -1.125,1.818 -2.5,3.3016 -1.375,1.4837 -2.5,3.144 -2.5,3.6897 0,0.5457 -1.6875,2.9281 -3.75,5.2944 -6.94758,7.9707 -14.74356,17.5596 -15.64772,19.2465 -1.393,2.5989 -33.45457,34.6545 -36.44445,36.4377 -1.46181,0.8718 -4.90783,3.6293 -7.65783,6.1277 -2.75,2.4985 -5.2885,4.5577 -5.64112,4.5761 -0.35261,0.018 -2.81936,1.8334 -5.48167,4.0334 -2.6623,2.2 -5.20594,4 -5.65252,4 -0.44659,0 -2.02524,1.125 -3.50812,2.5 -1.48287,1.375 -3.18479,2.5 -3.78204,2.5 -0.59725,0 -2.14278,1.125 -3.43453,2.5 -1.29175,1.375 -3.13269,2.5 -4.09098,2.5 -0.95829,0 -1.89235,0.3375 -2.07569,0.75 -0.45201,1.017 -8.56475,6.25 -9.68945,6.25 -0.49444,0 -1.45919,0.675 -2.14388,1.5 -0.68469,0.825 -2.05229,1.5 -3.03911,1.5 -0.98682,0 -1.94422,0.3375 -2.12756,0.75 -0.18333,0.4125 -5.28333,3.167 -11.33333,6.1211 -6.05,2.954 -11.675,5.7694 -12.5,6.2563 -0.825,0.4869 -2.175,1.1403 -3,1.452 -0.825,0.3116 -2.28139,0.9838 -3.23643,1.4936 -0.95504,0.5099 -2.38107,0.927 -3.16896,0.927 -0.78789,0 -2.9315,0.7511 -4.76357,1.6692 -6.15843,3.086 -6.79744,3.3308 -8.69503,3.3308 -1.04011,0 -2.45132,0.675 -3.13601,1.5 -0.68469,0.825 -2.51323,1.5 -4.06343,1.5 -1.55019,0 -3.09665,0.45 -3.43657,1 -0.33992,0.55 -1.82898,1.016 -3.30902,1.0354 -1.48004,0.02 -3.81598,0.6786 -5.19098,1.4646 -1.375,0.786 -3.71094,1.4451 -5.19098,1.4646 -1.48004,0.02 -2.9691,0.4854 -3.30902,1.0354 -0.33992,0.55 -2.50398,1.0143 -4.80902,1.0318 -2.30504,0.018 -5.06449,0.6925 -6.13211,1.5 -1.06762,0.8075 -3.85356,1.4682 -6.19098,1.4682 -2.33742,0 -4.52797,0.45 -4.86789,1 -0.33992,0.55 -2.81218,1 -5.49392,1 -2.68173,0 -6.14268,0.5088 -7.69098,1.1306 -1.54831,0.6219 -6.1901,1.5711 -10.3151,2.1094 -9.75976,1.2737 -71.89784,1.9243 -74.5,0.7801 z m 1.5,-41.3323 c 0,-2.8338 -4.33134,-10.0214 -10.02673,-16.6388 -11.42582,-13.2754 -28.81934,-29.8438 -39.02743,-37.1759 -2.44521,-1.7564 -4.67084,-3.4903 -4.94584,-3.8531 -1.55033,-2.0458 -15.1,-11.0671 -33,-21.9712 -0.825,-0.5026 -7.35,-3.8128 -14.5,-7.3562 -11.4228,-5.6608 -15.23733,-7.3603 -24,-10.6926 -8.64369,-3.2871 -11.22198,-4.32 -12.73643,-5.1027 -0.95504,-0.4935 -2.62727,-0.8973 -3.71607,-0.8973 -1.08881,0 -3.45741,-0.621 -5.26357,-1.38 -4.86048,-2.0426 -10.18568,-3.62 -12.22071,-3.62 -0.98714,0 -3.88019,-0.6484 -6.42901,-1.4409 -9.50723,-2.956 -15.9254,-3.8754 -26.47657,-3.7927 -5.96331,0.047 -11.0591,0.3017 -11.32398,0.5666 -0.51266,0.5127 0.23835,1.4599 11.16485,14.0823 10.19129,11.773 24.15439,25.3866 35.50149,34.6127 3.025,2.4596 5.725,4.7528 6,5.096 0.275,0.3432 4.775,3.6013 10,7.2403 5.225,3.639 9.95,6.9809 10.5,7.4264 0.55,0.4456 1.675,1.1221 2.5,1.5034 1.76129,0.8139 5.2836,2.9895 6,3.7059 0.86027,0.8603 4.26565,2.7794 11,6.1992 3.575,1.8155 6.65,3.6383 6.83333,4.0508 0.18334,0.4125 0.85763,0.75 1.49844,0.75 0.94588,0 10.61904,4.4336 19.90466,9.1231 0.95504,0.4823 2.64254,0.8769 3.75,0.8769 1.10746,0 2.01357,0.3568 2.01357,0.7929 0,0.4361 2.5875,1.6134 5.75,2.6162 3.1625,1.0028 6.65,2.1734 7.75,2.6013 6.14747,2.3915 11.27336,3.9896 12.797,3.9896 0.95158,0 2.51153,0.4318 3.46657,0.9596 2.52455,1.3951 12.7985,3.6148 29.55452,6.3853 4.84995,0.8019 9.08745,1.7273 9.41667,2.0565 1.22476,1.2248 8.26524,0.6169 8.26524,-0.7136 z m 90,-2.6985 c 1.925,-0.499 4.85,-1.1181 6.5,-1.3757 5.72914,-0.8945 13.00966,-2.6998 14.73643,-3.654 0.95504,-0.5278 2.51499,-0.9596 3.46657,-0.9596 1.52364,0 6.64953,-1.5981 12.797,-3.9896 1.1,-0.4279 4.5875,-1.5985 7.75,-2.6013 3.1625,-1.0028 5.75,-2.1801 5.75,-2.6162 0,-0.4361 0.90611,-0.7929 2.01357,-0.7929 2.01832,0 2.63673,-0.2336 8.81747,-3.3308 1.83207,-0.9181 3.75351,-1.6692 4.26987,-1.6692 0.51636,0 2.72095,-1.125 4.89909,-2.5 2.17814,-1.375 4.6067,-2.5 5.39679,-2.5 0.7901,0 1.58654,-0.3375 1.76988,-0.75 0.18333,-0.4125 3.25833,-2.2353 6.83333,-4.0508 7.10513,-3.6081 10.23007,-5.3899 11,-6.2721 0.275,-0.3152 1.175,-0.8748 2,-1.2437 1.44663,-0.6468 4.25232,-2.3632 6.44542,-3.9431 0.58002,-0.4178 5.32958,-3.737 10.55458,-7.376 5.225,-3.639 9.725,-6.8971 10,-7.2403 0.275,-0.3432 2.975,-2.6364 6,-5.096 11.3471,-9.2261 25.3102,-22.8397 35.50149,-34.6127 9.96756,-11.5146 11.49851,-13.3683 11.49851,-13.9229 0,-0.2708 -2.22804,-0.4924 -4.95121,-0.4924 -2.72317,0 -7.54271,-0.675 -10.7101,-1.5 -7.29973,-1.9013 -13.0496,-1.8992 -16.703,0.01 -1.57537,0.8216 -3.91131,1.4938 -5.19098,1.4938 -1.27967,0 -2.60479,0.45 -2.94471,1 -0.33992,0.55 -1.31097,1 -2.15789,1 -1.44224,0 -6.64096,2.0071 -10.57854,4.0841 -0.95504,0.5038 -2.19474,0.9159 -2.7549,0.9159 -0.56016,0 -3.23103,1.0674 -5.93527,2.372 -2.70423,1.3045 -6.07703,2.6631 -7.49509,3.019 -1.41807,0.3561 -2.57831,1.0887 -2.57831,1.6283 0,0.5395 -0.60184,0.9809 -1.33742,0.9809 -1.20824,0 -14.24841,6.3384 -19.13821,9.3024 -1.0866,0.6587 -4.35784,2.6601 -7.26942,4.4476 -2.91158,1.7875 -5.69755,3.25 -6.19103,3.25 -0.49349,0 -1.04725,0.3375 -1.23059,0.75 -0.18333,0.4125 -3.57266,2.945 -7.53183,5.6277 -3.95918,2.6827 -8.02347,5.6463 -9.03177,6.5856 -1.0083,0.9394 -3.8196,3.1469 -6.24734,4.9055 -13.75741,9.9658 -39.43891,35.6662 -49.14934,49.1854 -1.75632,2.4452 -3.48254,4.6708 -3.83604,4.9458 -1.06986,0.8323 -6.03701,7.6462 -6.03701,8.2815 0,0.7014 6.05192,-0.01 11,-1.2922 z m -57.9682,-31.7393 c 0.0175,-0.9625 0.6925,-2.6235 1.5,-3.6911 0.80751,-1.0676 1.4682,-2.7613 1.4682,-3.7636 0,-1.0023 0.38968,-2.6038 0.86596,-3.5589 1.53844,-3.0849 3.35099,-8.6587 3.81653,-11.7364 0.24959,-1.65 0.81321,-3.9 1.2525,-5 2.08727,-5.2266 4.52335,-16.4183 6.03947,-27.7463 0.4966,-3.7104 1.22581,-7.2687 1.62047,-7.9073 1.23662,-2.0009 2.75781,-25.6347 2.75781,-42.8464 0,-17.21172 -1.52119,-40.8455 -2.75781,-42.84639 -0.39466,-0.63858 -1.12387,-4.19687 -1.62047,-7.90733 -1.51612,-11.32795 -3.9522,-22.51969 -6.03947,-27.74628 -0.43929,-1.1 -1.00291,-3.35 -1.2525,-5 -0.46554,-3.07765 -2.27809,-8.65151 -3.81653,-11.73643 -0.47628,-0.95504 -0.86596,-2.55653 -0.86596,-3.55887 0,-1.00234 -0.66069,-2.69595 -1.4682,-3.76357 -0.8075,-1.06762 -1.4825,-2.72863 -1.5,-3.69113 -0.0175,-0.9625 -0.49592,-1.75 -1.06318,-1.75 -0.56727,0 -1.28307,0.7875 -1.59068,1.75 -0.30761,0.9625 -0.9012,2.65 -1.31907,3.75 -2.29095,6.03058 -3.33935,9.28556 -3.78851,11.76224 -0.27552,1.51923 -0.89907,3.00829 -1.38566,3.30902 -0.48658,0.30072 -0.90065,1.75772 -0.92014,3.23776 -0.0195,1.48004 -0.67854,3.81598 -1.46456,5.19098 -0.78602,1.375 -1.44508,3.59305 -1.46456,4.929 -0.0195,1.33595 -0.44626,3.81095 -0.94838,5.5 -3.12906,10.52577 -4.49431,18.59638 -6.01733,35.571 -0.4688,5.225 -1.3698,14.7875 -2.00223,21.25 -0.86648,8.85426 -0.86648,14.64574 0,23.5 0.63243,6.4625 1.53343,16.025 2.00223,21.25 1.52302,16.9746 2.88827,25.0452 6.01733,35.571 0.50212,1.6891 0.92889,4.1641 0.94838,5.5 0.0195,1.336 0.67854,3.554 1.46456,4.929 0.78602,1.375 1.44508,3.7109 1.46456,5.191 0.0195,1.48 0.43356,2.937 0.92014,3.2377 0.48659,0.3008 1.11014,1.7898 1.38566,3.3091 0.44916,2.4766 1.49756,5.7316 3.78851,11.7622 0.41787,1.1 1.01146,2.7875 1.31907,3.75 0.30761,0.9625 1.02341,1.75 1.59068,1.75 0.56726,0 1.04569,-0.7875 1.06318,-1.75 z m 62.38623,-44.75 c 3.97606,-3.853 10.16488,-9.1913 15.07119,-13 2.1255,-1.65 4.3766,-3.5113 5.00246,-4.1362 0.62585,-0.6249 6.28375,-4.7796 12.57311,-9.2326 6.28937,-4.4531 11.8987,-8.4418 12.46519,-8.8638 0.56649,-0.4221 2.59149,-1.6335 4.5,-2.6921 1.90851,-1.0586 3.69502,-2.1836 3.97002,-2.5 0.64637,-0.7437 4.08912,-2.6894 11.26764,-6.3678 3.1722,-1.6256 6.01126,-3.3497 6.30901,-3.8315 0.29776,-0.4818 1.41483,-0.876 2.48237,-0.876 1.06754,0 1.94098,-0.45 1.94098,-1 0,-0.55 0.66412,-1 1.47583,-1 0.81171,0 2.85413,-0.83819 4.53871,-1.86265 l 3.06287,-1.86264 -3.2887,-1.23583 c -1.80879,-0.67971 -5.54517,-2.31652 -8.30306,-3.63736 -2.7579,-1.32083 -5.5329,-2.40152 -6.16667,-2.40152 -0.63377,0 -1.30231,-0.3375 -1.48565,-0.75 -0.18333,-0.4125 -3.25833,-2.22233 -6.83333,-4.02184 -3.575,-1.79952 -8.75,-4.60609 -11.5,-6.23683 -2.75,-1.63073 -5.675,-3.27993 -6.5,-3.66488 -6.30295,-2.94096 -36.7275,-24.49991 -43.15028,-30.57645 -3.90499,-3.69447 -4.16416,-1.72756 -1.74587,13.25 2.10231,13.02055 -0.007,84.799 -2.61661,89.0207 -0.40086,0.6485 -1.08148,3.7217 -1.51249,6.8293 -0.43102,3.1075 -1.11416,6.775 -1.51809,8.15 -0.69197,2.3555 -0.51477,2.2977 3.06556,-1 2.08999,-1.925 5.1931,-4.85 6.89581,-6.5 z m -121.16479,-14.25 c -0.22622,-3.1625 -1.05074,-8.9935 -1.83228,-12.9578 -2.03212,-10.308 -1.96379,-59.06549 0.0964,-68.79183 1.63497,-7.71878 1.96474,-15.85367 0.62159,-15.3337 -1.02127,0.39536 -7.82328,5.6895 -10.08109,7.84632 -2.87531,2.74669 -23.04717,16.98701 -24.06264,16.98701 -0.54737,0 -0.99522,0.39752 -0.99522,0.88337 0,0.48585 -0.7875,1.14779 -1.75,1.47097 -1.82809,0.61382 -5.38987,2.73299 -6.25,3.7186 -0.275,0.31512 -1.175,0.89145 -2,1.28073 -0.825,0.38929 -3.75,2.00236 -6.5,3.5846 -4.80127,2.76247 -19.38448,10.17779 -22.5,11.44087 -0.825,0.33447 -2.175,0.99105 -3,1.45907 -3.99901,2.26861 -6.0972,3.16179 -7.42741,3.16179 -2.25456,0 -2.91595,1.9437 -0.88597,2.60372 0.99736,0.32427 3.16338,1.17372 4.81338,1.88766 1.65,0.71393 4.125,1.74732 5.5,2.29642 3.63897,1.4531 14.25087,6.2922 16,7.2961 0.825,0.4734 3.075,1.5857 5,2.4717 1.925,0.886 4.175,2.011 5,2.5 0.825,0.489 3.075,1.6638 5,2.6106 1.925,0.9468 6.98258,3.8843 11.23906,6.5277 4.25649,2.6433 7.98798,4.8061 8.29221,4.8061 0.30423,0 1.09665,0.459 1.76094,1.0199 0.66428,0.5609 5.48279,4.0291 10.70779,7.7069 5.225,3.6779 10.09464,7.269 10.82143,7.9801 2.35525,2.3047 2.85055,1.397 2.43181,-4.4569 z m -156.75324,-64.0994 c 2.75,-0.5318 7.7,-1.70784 11,-2.61342 3.3,-0.90557 7.575,-2.03733 9.5,-2.51501 5.65015,-1.40205 11.81004,-3.49887 12.6003,-4.28913 0.40317,-0.40317 1.56414,-0.73304 2.57994,-0.73304 1.85398,0 2.50108,-0.24915 8.6508,-3.3308 1.83207,-0.91806 3.97568,-1.6692 4.76357,-1.6692 0.78789,0 2.21392,-0.40025 3.16896,-0.88944 0.95504,-0.4892 9.16143,-4.56337 18.23643,-9.05372 16.48116,-8.15495 20.05846,-10.05088 21,-11.12978 0.275,-0.31512 1.175,-0.87476 2,-1.24364 1.71696,-0.7677 5.25836,-2.94178 6,-3.68342 0.275,-0.275 3.8433,-2.74057 7.92955,-5.47906 4.08625,-2.73848 9.06945,-6.33848 11.07377,-8 2.00432,-1.66151 5.60621,-4.59594 8.00421,-6.52094 13.91829,-11.17297 32.43677,-30.07457 45.47978,-46.42072 3.60631,-4.5196 3.7261,-4.85675 1.46953,-4.13591 -1.35126,0.43166 -5.15684,1.15216 -8.45684,1.60113 -9.53826,1.29769 -17.60931,2.94363 -19.56391,3.9897 -0.99253,0.53119 -3.15763,0.9658 -4.81133,0.9658 -1.6537,0 -3.25411,0.40028 -3.55647,0.88951 -0.30237,0.48923 -2.01642,1.10781 -3.80902,1.37461 -3.27516,0.48746 -8.76363,2.25809 -11.9957,3.86992 -0.95504,0.47628 -2.40227,0.86596 -3.21607,0.86596 -0.81381,0 -3.18241,0.73737 -5.26357,1.63861 -2.08116,0.90123 -4.90893,2.07361 -6.28393,2.60528 -4.02319,1.55564 -8.12407,3.3129 -14,5.99912 -3.025,1.38289 -7.16838,3.25599 -9.20752,4.16243 -2.03914,0.90645 -3.9782,2.08604 -4.30902,2.62132 -0.33082,0.53528 -1.47494,0.97324 -2.54248,0.97324 -1.06754,0 -1.94524,0.3375 -1.95045,0.75 -0.005,0.4125 -2.03021,1.63835 -4.5,2.72412 -2.46979,1.08577 -4.49053,2.27078 -4.49053,2.63337 0,0.36259 -0.7875,0.92367 -1.75,1.24685 -1.99465,0.66974 -3.84264,1.80795 -10.38398,6.39566 -2.54868,1.7875 -4.93082,3.25 -5.29364,3.25 -0.36282,0 -1.87293,1.125 -3.35581,2.5 -1.48287,1.375 -3.22573,2.5 -3.87302,2.5 -0.64729,0 -1.32688,0.36399 -1.51022,0.80886 -0.18333,0.44488 -3.03333,2.80738 -6.33333,5.25 -3.3,2.44263 -6.4845,4.89114 -7.07666,5.44114 -0.59217,0.55 -4.13591,3.7 -7.87497,7 -17.12906,15.11765 -34.54837,34.94834 -34.54837,39.33097 0,2.22364 6.0484,2.3408 16.5,0.31963 z m 432.66977,-2.54473 c 3.11838,-0.60823 6.00588,-1.44337 6.41667,-1.85587 0.41079,-0.4125 1.56225,-0.75 2.55879,-0.75 1.60778,0 1.67349,-0.3098 0.58333,-2.75 -3.02179,-6.76395 -23.63033,-28.02206 -38.53537,-39.75 -1.39799,-1.1 -4.93201,-3.9125 -7.85337,-6.25 -2.92136,-2.3375 -5.66002,-4.25 -6.08591,-4.25 -0.42589,0 -1.98761,-1.125 -3.47048,-2.5 -1.48288,-1.375 -2.99299,-2.5 -3.35581,-2.5 -0.36282,0 -2.74496,-1.4625 -5.29364,-3.25 -6.54134,-4.58771 -8.38933,-5.72592 -10.38398,-6.39566 -0.9625,-0.32318 -1.75,-0.88426 -1.75,-1.24685 0,-0.36259 -2.02074,-1.5476 -4.49053,-2.63337 -2.46979,-1.08577 -4.49479,-2.31162 -4.5,-2.72412 -0.005,-0.4125 -0.88291,-0.75 -1.95045,-0.75 -1.06754,0 -2.21166,-0.43796 -2.54248,-0.97324 -0.33082,-0.53528 -2.26988,-1.71487 -4.30902,-2.62132 -2.03914,-0.90644 -6.18252,-2.77954 -9.20752,-4.16243 -5.87593,-2.68622 -9.97681,-4.44348 -14,-5.99912 -1.375,-0.53167 -4.20277,-1.70405 -6.28393,-2.60528 -2.08116,-0.90124 -4.44976,-1.63861 -5.26357,-1.63861 -0.8138,0 -2.26103,-0.40515 -3.21607,-0.90034 -0.95504,-0.49518 -4.43643,-1.68322 -7.73643,-2.64008 -3.3,-0.95686 -6.9,-2.09604 -8,-2.53152 -1.1,-0.43548 -3.35,-1.01758 -5,-1.29357 -4.28013,-0.71592 -12.47458,-2.60156 -16.071,-3.69812 -1.68905,-0.51501 -4.89497,-0.93637 -7.12427,-0.93637 -2.2293,0 -5.98005,-0.6798 -8.33499,-1.51068 -4.65724,-1.64317 -5.98278,-1.36744 -3.83879,0.79851 0.75298,0.76068 2.94405,3.3304 4.86905,5.71048 9.61291,11.88546 28.01272,30.83913 40.0702,41.27635 6.54843,5.66848 31.2315,23.72534 32.43167,23.72534 0.34737,0 2.06405,1.01363 3.81485,2.25251 4.252,3.00875 6.42424,4.3227 11.18328,6.76459 2.2,1.12884 5.35,2.90389 7,3.94458 1.65,1.04068 3.7875,1.92503 4.75,1.96523 0.9625,0.0402 1.75,0.43649 1.75,0.88064 0,0.44416 1.9125,1.60882 4.25,2.58814 2.3375,0.97932 6.42903,2.86592 9.09229,4.19245 2.66325,1.32652 5.48186,2.41186 6.26357,2.41186 0.7817,0 2.20267,0.42106 3.15771,0.93568 4.3723,2.35602 8.69137,4.06432 10.27576,4.06432 0.95263,0 3.02099,0.67223 4.59636,1.49384 1.57537,0.82161 3.62525,1.49661 4.55529,1.5 0.93004,0.003 1.9691,0.45616 2.30902,1.00616 0.33992,0.55 2.13992,1 4,1 1.86008,0 3.66008,0.45 4,1 0.33992,0.55 1.60398,1.0254 2.80902,1.05644 1.20504,0.0311 3.76598,0.65092 5.69098,1.3775 1.925,0.72658 4.175,1.08632 5,0.79943 0.825,-0.2869 4.0514,-1.01927 7.16977,-1.6275 z m -486.1787,-18.3627 c 1.3701,-2.05874 2.72081,-3.96817 3.0016,-4.24317 0.28078,-0.275 1.01627,-1.625 1.63441,-3 2.97485,-6.61727 4.65333,-11.43034 8.02092,-23 0.88049,-3.025 1.99489,-6.28139 2.47644,-7.23643 0.48156,-0.95504 0.87556,-3.22754 0.87556,-5.05 0,-1.82246 0.42658,-3.74107 0.94797,-4.26357 1.75254,-1.7563 3.66629,-14.01915 8.04701,-51.56334 1.28137,-10.98173 1.28137,-24.79159 0,-35.77332 -4.38072,-37.54419 -6.29447,-49.80704 -8.04701,-51.56334 -0.52139,-0.5225 -0.94797,-2.44111 -0.94797,-4.26357 0,-1.82246 -0.394,-4.09496 -0.87556,-5.05 -0.48155,-0.95504 -1.59595,-4.21143 -2.47644,-7.23643 -2.0826,-7.15497 -4.20062,-13.52484 -6.15137,-18.5 -0.86262,-2.2 -1.82973,-4.7875 -2.14914,-5.75 -0.31942,-0.9625 -0.87204,-1.75 -1.22805,-1.75 -0.35602,0 -1.75977,-1.8 -3.11944,-4 -2.71056,-4.38578 -3.78142,-4.90907 -4.60438,-2.25 -0.29789,0.9625 -0.95877,2.53139 -1.46862,3.48643 -0.50985,0.95504 -0.93111,2.30504 -0.93614,3 -0.005,0.69496 -1.11596,3.51357 -2.46873,6.26357 -1.35277,2.75 -2.47366,5.9225 -2.49086,7.05 -0.0172,1.1275 -0.42342,2.4775 -0.90272,3 -0.83617,0.91154 -2.08721,4.93412 -5.58254,17.95 -0.88619,3.3 -2.04658,7.38195 -2.57863,9.071 -0.53206,1.68905 -0.96738,4.1321 -0.96738,5.429 0,1.2969 -0.41608,3.73995 -0.92462,5.429 -3.3602,11.16045 -5.43009,33.10592 -5.43009,57.571 0,24.46508 2.06989,46.41055 5.43009,57.571 0.50854,1.68905 0.92462,4.1321 0.92462,5.429 0,1.2969 0.43532,3.73995 0.96738,5.429 0.53205,1.68905 1.69244,5.771 2.57863,9.071 3.49533,13.01588 4.74637,17.03846 5.58254,17.95 0.4793,0.5225 0.87145,1.73034 0.87145,2.68409 0,0.95374 1.17334,4.57624 2.60743,8.05 3.59482,8.70767 4.12914,10.05911 4.77051,12.06591 0.829,2.59389 1.8457,2.1516 4.61313,-2.00683 z m 542.63099,2.00683 c 0.62595,-1.95857 1.47892,-4.11378 3.66089,-9.25 0.81777,-1.925 2.04389,-5.3 2.72471,-7.5 0.68082,-2.2 1.56012,-4.675 1.95401,-5.5 0.76288,-1.59785 3.05911,-9.32621 5.57095,-18.75 0.84295,-3.1625 1.96795,-7.13195 2.5,-8.821 0.53206,-1.68905 0.96738,-4.1321 0.96738,-5.429 0,-1.2969 0.41608,-3.73995 0.92462,-5.429 3.3602,-11.16045 5.43009,-33.10592 5.43009,-57.571 0,-24.46508 -2.06989,-46.41055 -5.43009,-57.571 -0.50854,-1.68905 -0.92462,-4.1321 -0.92462,-5.429 0,-1.2969 -0.43532,-3.73995 -0.96738,-5.429 -0.53205,-1.68905 -1.65705,-5.6585 -2.5,-8.821 -3.3076,-12.40926 -4.82544,-17.28895 -5.66117,-18.2 -0.4793,-0.5225 -0.87145,-1.73034 -0.87145,-2.68409 0,-0.95374 -1.17334,-4.57624 -2.60743,-8.05 -3.59482,-8.70767 -4.12914,-10.05911 -4.77051,-12.06591 -0.85787,-2.68423 -1.82556,-2.12483 -5.62206,3.25 -1.925,2.72528 -3.8375,4.96517 -4.25,4.97753 -0.4125,0.0124 -0.75,0.69747 -0.75,1.52247 0,0.825 -0.44143,1.5 -0.98095,1.5 -0.53952,0 -1.2633,1.125 -1.60841,2.5 -0.3451,1.375 -1.02867,2.5 -1.51905,2.5 -0.49037,0 -0.89159,1.26 -0.89159,2.8 0,1.54 -0.39215,3.2275 -0.87145,3.75 -0.4793,0.5225 -1.62957,3.65 -2.55614,6.95 -0.92658,3.3 -2.33666,8.025 -3.1335,10.5 -0.79684,2.475 -1.44658,5.4225 -1.44386,6.55 0.003,1.1275 -0.40142,2.4775 -0.8981,3 -0.49667,0.5225 -1.14275,2.975 -1.43572,5.45 -0.29297,2.475 -1.25112,8.1 -2.12922,12.5 -5.15051,25.80827 -5.15051,75.19173 0,101 0.8781,4.4 1.83625,10.025 2.12922,12.5 0.29297,2.475 0.93905,4.9275 1.43572,5.45 0.49668,0.5225 0.90082,1.8725 0.8981,3 -0.003,1.1275 0.64702,4.075 1.44386,6.55 0.79684,2.475 2.20692,7.2 3.1335,10.5 0.92657,3.3 2.07684,6.4275 2.55614,6.95 0.4793,0.5225 0.87145,2.21 0.87145,3.75 0,1.54 0.40122,2.8 0.89159,2.8 0.49038,0 1.17395,1.125 1.51905,2.5 0.34511,1.375 1.06889,2.5 1.60841,2.5 0.53952,0 0.98095,0.675 0.98095,1.5 0,0.825 0.3375,1.51011 0.75,1.52247 0.4125,0.0124 2.325,2.25225 4.25,4.97753 3.7965,5.37483 4.76419,5.93423 5.62206,3.25 z M 269.43403,520.96942 c 0,-0.49115 0.46964,-0.89301 1.04364,-0.89301 0.57401,0 2.25691,-1.125 3.73979,-2.5 1.48287,-1.375 3.05722,-2.5 3.49856,-2.5 0.76018,0 2.0015,-0.89841 5.18129,-3.75 0.76662,-0.6875 1.70322,-1.25 2.08131,-1.25 0.3781,0 2.77275,-1.50378 5.32143,-3.34174 2.54869,-1.83796 5.30898,-3.6351 6.13398,-3.99364 1.68452,-0.73208 5.23755,-2.90217 6,-3.66462 0.92125,-0.92125 4.43725,-2.87104 13.5,-7.48639 4.95,-2.52086 9.675,-4.96554 10.5,-5.43261 1.37121,-0.77631 4.10142,-1.9653 8,-3.48396 0.825,-0.32137 2.175,-0.98502 3,-1.47479 0.825,-0.48976 2.85,-1.43425 4.5,-2.09886 1.65,-0.66462 4.27397,-1.84177 5.83104,-2.61589 1.55707,-0.77413 3.66801,-1.4075 4.69098,-1.4075 1.02297,0 2.08299,-0.36089 2.35559,-0.80197 0.27261,-0.44109 2.77417,-1.42243 5.55902,-2.18077 2.78485,-0.75834 5.06337,-1.66611 5.06337,-2.01726 0,-0.35115 -2.27852,-1.25892 -5.06337,-2.01726 -2.78485,-0.75834 -5.28641,-1.73968 -5.55902,-2.18077 -0.2726,-0.44108 -1.33262,-0.80197 -2.35559,-0.80197 -1.02297,0 -3.13391,-0.63337 -4.69098,-1.4075 -1.55707,-0.77412 -4.18104,-1.95127 -5.83104,-2.61589 -1.65,-0.66461 -3.675,-1.6091 -4.5,-2.09886 -0.825,-0.48977 -2.175,-1.15342 -3,-1.47479 -3.89858,-1.51866 -6.62879,-2.70765 -8,-3.48396 -0.825,-0.46707 -5.55,-2.91175 -10.5,-5.43261 -9.06275,-4.61535 -12.57875,-6.56514 -13.5,-7.48639 -0.76245,-0.76245 -4.31548,-2.93254 -6,-3.66462 -0.825,-0.35854 -3.58529,-2.15568 -6.13398,-3.99364 -2.54868,-1.83796 -4.94333,-3.34174 -5.32143,-3.34174 -0.37809,0 -1.31469,-0.5625 -2.08131,-1.25 -3.17979,-2.85159 -4.42111,-3.75 -5.18129,-3.75 -0.44134,0 -2.01569,-1.125 -3.49856,-2.5 -1.48288,-1.375 -2.97292,-2.5 -3.31121,-2.5 -0.33829,0 -1.37043,-0.75918 -2.29365,-1.68706 -1.5743,-1.58226 -1.6971,-1.56131 -1.97679,0.33725 -0.16403,1.11336 0.25315,5.58504 0.92704,9.93706 1.54183,9.95708 2.3345,69.3992 0.99897,74.91275 -0.5329,2.2 -1.28312,7.49389 -1.66717,11.76421 -0.62169,6.91282 -0.52075,7.69609 0.92056,7.14301 0.89035,-0.34166 1.61882,-1.02305 1.61882,-1.51421 z m 407.13744,-14.37498 c -0.54074,-2.20992 -1.2677,-12.79303 -1.61548,-23.51803 -0.56305,-17.36401 -0.16208,-27.96085 2.14733,-56.75 0.56538,-7.048 -0.20042,-7.69295 -4.45272,-3.75 -1.48287,1.375 -3.05722,2.5 -3.49856,2.5 -0.76018,0 -2.0015,0.89841 -5.18129,3.75 -0.76662,0.6875 -1.70322,1.25 -2.08131,1.25 -0.3781,0 -2.77275,1.50378 -5.32143,3.34174 -2.54869,1.83796 -5.30898,3.6351 -6.13398,3.99364 -1.68452,0.73208 -5.23755,2.90217 -6,3.66462 -0.92125,0.92125 -4.43725,2.87104 -13.5,7.48639 -4.95,2.52086 -9.675,4.96554 -10.5,5.43261 -1.37121,0.77631 -4.10142,1.9653 -8,3.48396 -0.825,0.32137 -2.175,0.98502 -3,1.47479 -0.825,0.48976 -2.85,1.43425 -4.5,2.09886 -1.65,0.66462 -4.27397,1.84177 -5.83104,2.61589 -1.55707,0.77413 -3.66801,1.4075 -4.69098,1.4075 -1.02297,0 -2.08299,0.36089 -2.35559,0.80197 -0.27261,0.44109 -2.77417,1.42243 -5.55902,2.18077 -2.78485,0.75834 -5.06337,1.66611 -5.06337,2.01726 0,0.35115 2.27852,1.25892 5.06337,2.01726 2.78485,0.75834 5.28641,1.73968 5.55902,2.18077 0.2726,0.44108 1.33262,0.80197 2.35559,0.80197 1.02297,0 3.13391,0.63337 4.69098,1.4075 2.54826,1.26691 4.78313,2.22386 9.33104,3.99546 0.825,0.32137 2.175,0.98502 3,1.47479 0.825,0.48976 2.85,1.44477 4.5,2.12225 1.65,0.67748 3.675,1.61393 4.5,2.081 0.825,0.46707 5.55,2.91175 10.5,5.43261 9.49005,4.83296 12.67909,6.61867 13.5,7.55933 0.275,0.31512 1.175,0.87476 2,1.24364 1.9853,0.88768 4.53051,2.50348 10.13398,6.43342 2.54868,1.7875 4.93018,3.25 5.2922,3.25 0.62802,0 1.96738,0.99712 5.0371,3.75 0.76662,0.6875 1.76351,1.25719 2.21529,1.26597 0.45179,0.009 2.39643,1.40721 4.32143,3.1076 l 3.5,3.09163 0.3103,-5.33957 c 0.17067,-2.93676 -0.13212,-7.14768 -0.67286,-9.3576 z M 515.43403,444.57641 c 2.3383,-0.825 6.07543,-1.5 8.30473,-1.5 2.2293,0 5.43522,-0.42136 7.12427,-0.93637 3.59642,-1.09656 11.79087,-2.9822 16.071,-3.69812 1.65,-0.27599 3.9,-0.88723 5,-1.35833 1.1,-0.47109 3.125,-1.06983 4.5,-1.33052 2.80683,-0.53217 8.60587,-2.49885 11.23643,-3.8107 0.95504,-0.47628 2.40227,-0.86596 3.21607,-0.86596 0.81381,0 3.18241,-0.73737 5.26357,-1.63861 2.08116,-0.90123 4.90893,-2.07361 6.28393,-2.60528 4.02319,-1.55564 8.12407,-3.3129 14,-5.99912 3.025,-1.38289 7.16838,-3.25599 9.20752,-4.16243 2.03914,-0.90645 3.9782,-2.08604 4.30902,-2.62132 0.33082,-0.53528 1.47494,-0.97324 2.54248,-0.97324 1.06754,0 1.94524,-0.3375 1.95045,-0.75 0.005,-0.4125 2.03021,-1.63835 4.5,-2.72412 2.46979,-1.08577 4.49053,-2.27078 4.49053,-2.63337 0,-0.36259 0.7875,-0.92367 1.75,-1.24685 1.90379,-0.63923 4.0233,-1.91881 8.93328,-5.39315 1.7508,-1.23888 3.6633,-2.25251 4.25,-2.25251 0.5867,0 1.06672,-0.45 1.06672,-1 0,-0.55 0.46899,-1 1.04221,-1 0.98084,0 2.11199,-0.78247 5.42107,-3.75 0.76662,-0.6875 1.65736,-1.25 1.97942,-1.25 0.32206,0 2.97576,-1.9125 5.89712,-4.25 2.92136,-2.3375 6.46996,-5.15 7.88578,-6.25 10.00484,-7.77313 27.03579,-24.4655 35.2744,-34.57312 2.39112,-2.93358 5.5,-9.4118 5.5,-11.46081 0,-0.80634 0.45,-1.46607 1,-1.46607 0.55,0 1,-0.50078 1,-1.11285 0,-2.42372 -31.7154,2.49492 -34.58401,5.36352 -0.41213,0.41213 -2.22277,0.74933 -4.02364,0.74933 -1.80087,0 -3.55243,0.45 -3.89235,1 -0.33992,0.55 -1.37898,1.00277 -2.30902,1.00616 -0.93004,0.003 -2.97992,0.67839 -4.55529,1.5 -1.57537,0.82161 -3.71897,1.49384 -4.76357,1.49384 -1.04459,0 -2.68065,0.42106 -3.63569,0.93568 -3.93226,2.1189 -8.62204,4.06432 -9.79778,4.06432 -0.68974,0 -3.43311,1.08534 -6.09636,2.41186 -2.66326,1.32653 -6.75479,3.21313 -9.09229,4.19245 -2.3375,0.97932 -4.25,2.14398 -4.25,2.58814 0,0.44415 -0.7875,0.84044 -1.75,0.88064 -0.9625,0.0402 -3.1,0.92455 -4.75,1.96523 -1.65,1.04069 -4.8,2.81574 -7,3.94458 -4.75904,2.44189 -6.93128,3.75584 -11.18328,6.76459 -1.7508,1.23888 -3.46748,2.25251 -3.81485,2.25251 -1.20518,0 -25.89619,18.06811 -32.43167,23.73248 -12.21305,10.58517 -30.41655,29.33338 -40.0702,41.26921 -1.925,2.38008 -4.0625,4.89623 -4.75,5.59144 -1.21101,1.22458 -1.64117,2.40687 -0.87573,2.40687 0.20585,0 2.28743,-0.675 4.62573,-1.5 z m -85.65258,-4.25 c -12.89488,-16.17615 -31.67144,-35.31929 -45.36436,-46.25 -2.41145,-1.925 -5.75664,-4.6826 -7.43376,-6.12801 -3.97251,-3.42367 -25.41835,-17.87199 -26.52763,-17.87199 -0.47025,0 -1.005,-0.3375 -1.18834,-0.75 -0.48186,-1.0842 -6.40249,-4.28684 -22.83333,-12.35118 -7.975,-3.91418 -15.28139,-7.51767 -16.23643,-8.00775 -0.95504,-0.49009 -2.38107,-0.89107 -3.16896,-0.89107 -0.78789,0 -2.9315,-0.75114 -4.76357,-1.6692 -6.1429,-3.07823 -6.79635,-3.3308 -8.61747,-3.3308 -0.99746,0 -2.24107,-0.35757 -2.76357,-0.79461 -0.5225,-0.43703 -3.425,-1.52676 -6.45,-2.42161 -3.025,-0.89485 -7.91418,-2.33728 -10.86483,-3.20539 -2.95066,-0.86812 -6.12316,-1.57839 -7.05,-1.57839 -0.92685,0 -2.11267,-0.40637 -2.63517,-0.90305 -1.87488,-1.78222 -20.56874,-3.31296 -22.0733,-1.80747 -1.45412,1.45502 2.97025,8.12948 12.07141,18.21052 4.9654,5.5 9.75118,10.675 10.63506,11.5 6.34142,5.91899 18.56482,16.84791 20.69123,18.5 1.41582,1.1 4.96442,3.9125 7.88578,6.25 2.92136,2.3375 5.66002,4.25 6.08591,4.25 0.42589,0 1.98761,1.125 3.47048,2.5 1.48288,1.375 3.16578,2.5 3.73979,2.5 0.574,0 1.04364,0.45 1.04364,1 0,0.55 0.48002,1 1.06672,1 0.5867,0 2.4992,1.01363 4.25,2.25251 4.90998,3.47434 7.02949,4.75392 8.93328,5.39315 0.9625,0.32318 1.75,0.88426 1.75,1.24685 0,0.36259 2.02074,1.5476 4.49053,2.63337 2.46979,1.08577 4.49479,2.31162 4.5,2.72412 0.005,0.4125 0.88291,0.75 1.95045,0.75 1.06754,0 2.21166,0.43796 2.54248,0.97324 0.33082,0.53528 2.26988,1.71487 4.30902,2.62132 2.03914,0.90644 6.18252,2.77954 9.20752,4.16243 5.87593,2.68622 9.97681,4.44348 14,5.99912 1.375,0.53167 4.20277,1.70405 6.28393,2.60528 2.08116,0.90124 4.44976,1.63861 5.26357,1.63861 0.8138,0 2.26103,0.38968 3.21607,0.86596 3.23207,1.61183 8.72054,3.38246 11.9957,3.86992 1.7926,0.2668 3.50665,0.88538 3.80902,1.37461 0.30236,0.48923 1.90277,0.88951 3.55647,0.88951 1.6537,0 3.8188,0.43461 4.81133,0.9658 2.0002,1.07047 10.23396,2.71527 19.85578,3.96645 3.46053,0.44999 6.57303,1.09932 6.91667,1.44296 0.34364,0.34363 1.25492,0.62479 2.02508,0.62479 0.86547,0 -0.0459,-1.81417 -2.3862,-4.75 z m 43.68438,-18 c 0.0175,-0.9625 0.6925,-2.62351 1.5,-3.69113 0.80751,-1.06762 1.4682,-2.76123 1.4682,-3.76357 0,-1.00234 0.38968,-2.60383 0.86596,-3.55887 1.53844,-3.08492 3.35099,-8.65878 3.81653,-11.73643 0.24959,-1.65 0.81321,-3.9 1.2525,-5 2.08727,-5.22659 4.52335,-16.41833 6.03947,-27.74628 0.4966,-3.71046 1.22581,-7.26875 1.62047,-7.90733 1.23662,-2.00089 2.75781,-25.63467 2.75781,-42.84639 0,-17.21172 -1.52119,-40.8455 -2.75781,-42.84639 -0.39466,-0.63858 -1.12387,-4.19687 -1.62047,-7.90733 -1.51612,-11.32795 -3.9522,-22.51969 -6.03947,-27.74628 -0.43929,-1.1 -1.00291,-3.35 -1.2525,-5 -0.46554,-3.07765 -2.27809,-8.65151 -3.81653,-11.73643 -0.47628,-0.95504 -0.86596,-2.55653 -0.86596,-3.55887 0,-1.00234 -0.66069,-2.69595 -1.4682,-3.76357 -0.8075,-1.06762 -1.4825,-2.72863 -1.5,-3.69113 -0.0175,-0.9625 -0.49592,-1.75 -1.06318,-1.75 -0.56727,0 -1.28307,0.7875 -1.59068,1.75 -0.30761,0.9625 -0.9012,2.65 -1.31907,3.75 -2.29095,6.03058 -3.33935,9.28556 -3.78851,11.76224 -0.27552,1.51923 -0.89907,3.00829 -1.38566,3.30902 -0.48658,0.30072 -0.90065,1.75772 -0.92014,3.23776 -0.0195,1.48004 -0.67854,3.81598 -1.46456,5.19098 -0.78602,1.375 -1.44508,3.59305 -1.46456,4.929 -0.0195,1.33595 -0.44626,3.81095 -0.94838,5.5 -3.12906,10.52577 -4.49431,18.59638 -6.01733,35.571 -0.4688,5.225 -1.3698,14.7875 -2.00223,21.25 -0.86648,8.85426 -0.86648,14.64574 0,23.5 0.63243,6.4625 1.53343,16.025 2.00223,21.25 1.52302,16.97462 2.88827,25.04523 6.01733,35.571 0.50212,1.68905 0.92889,4.16405 0.94838,5.5 0.0195,1.33595 0.67854,3.554 1.46456,4.929 0.78602,1.375 1.44508,3.71094 1.46456,5.19098 0.0195,1.48004 0.43356,2.93704 0.92014,3.23776 0.48659,0.30073 1.11014,1.78979 1.38566,3.30902 0.44916,2.47668 1.49756,5.73166 3.78851,11.76224 0.41787,1.1 1.01146,2.7875 1.31907,3.75 0.30761,0.9625 1.02341,1.75 1.59068,1.75 0.56726,0 1.04569,-0.7875 1.06318,-1.75 z m -59.0318,-60.50037 c 0,-2.33771 -0.66719,-7.40021 -1.48264,-11.25 -2.06019,-9.72634 -2.12852,-58.48384 -0.0964,-68.79179 1.35779,-6.88737 2.58204,-18.70784 1.93758,-18.70784 -0.26346,0 -21.0612,14.586 -23.85854,16.73262 -0.55,0.42206 -2.6875,1.65721 -4.75,2.74478 -2.0625,1.08758 -3.75,2.27259 -3.75,2.63337 0,0.36078 -0.7875,0.91792 -1.75,1.23808 -0.9625,0.32016 -4.9,2.3887 -8.75,4.59675 -3.85,2.20806 -7.675,4.29677 -8.5,4.64159 -2.40195,1.00391 -7.37033,3.39369 -9,4.32896 -1.74913,1.00384 -12.36103,5.84291 -16,7.29608 -1.375,0.54908 -3.85,1.58246 -5.5,2.29639 -1.65,0.71394 -3.81602,1.56339 -4.81338,1.88766 -2.02998,0.66002 -1.36859,2.60372 0.88597,2.60372 0.8,0 2.23594,0.41715 3.19098,0.927 0.95504,0.50985 2.41143,1.18199 3.23643,1.49364 0.825,0.31165 2.175,0.98344 3,1.49287 0.825,0.50943 5.325,2.81144 10,5.11558 11.87001,5.85032 16.0437,8.12544 19.66739,10.72091 1.72774,1.2375 3.43941,2.25 3.8037,2.25 0.3643,0 2.1373,1.125 3.94002,2.5 1.80272,1.375 3.57055,2.5 3.9285,2.5 0.71474,0 20.16376,13.8728 23.85542,17.01584 1.26774,1.07933 3.87997,3.31013 5.80497,4.95732 1.925,1.64719 3.8375,3.00208 4.25,3.01087 0.4125,0.009 0.75,-1.8967 0.75,-4.2344 z m 118.84972,2.50037 c 6.42278,-6.07654 36.84733,-27.63549 43.15028,-30.57645 0.825,-0.38495 3.75,-2.04832 6.5,-3.69639 2.75,-1.64806 6.8,-3.90008 9,-5.00448 2.2,-1.1044 4.675,-2.40612 5.5,-2.89271 0.825,-0.48659 5.1,-2.55798 9.5,-4.6031 4.4,-2.04512 9.19443,-4.33905 10.65429,-5.09763 1.45986,-0.75858 3.37236,-1.37924 4.25,-1.37924 2.1479,0 2.03478,-1.92245 -0.15429,-2.62206 -3.06799,-0.98052 -5.61525,-2.07331 -11.09229,-4.75866 -2.93825,-1.4406 -5.92065,-2.61928 -6.62755,-2.61928 -0.7069,0 -1.84547,-0.675 -2.53016,-1.5 -0.68469,-0.825 -2.08979,-1.5 -3.12244,-1.5 -1.03266,0 -1.87756,-0.45 -1.87756,-1 0,-0.55 -0.87344,-1 -1.94098,-1 -1.06754,0 -2.18461,-0.39419 -2.48237,-0.87597 -0.29775,-0.48179 -3.13681,-2.20595 -6.30901,-3.83148 -7.17852,-3.67847 -10.62127,-5.62413 -11.26764,-6.36786 -0.275,-0.31642 -2.06151,-1.44142 -3.97002,-2.5 -1.90851,-1.05858 -3.93351,-2.27001 -4.5,-2.69207 -0.56649,-0.42206 -6.17582,-4.41076 -12.46519,-8.86378 -6.28936,-4.45302 -11.95836,-8.61956 -12.59778,-9.25897 -0.63942,-0.63942 -3.48108,-2.93069 -6.31479,-5.09171 -2.83372,-2.16102 -5.15222,-4.28666 -5.15222,-4.72365 0,-0.43698 -0.45,-0.79451 -1,-0.79451 -1.33662,0 -1.27429,6.1665 0.0979,9.6849 2.10828,5.40583 3.19111,21.04726 3.62168,52.3151 0.26712,19.39793 0.0306,33.99725 -0.61573,38 -2.41829,14.97756 -2.15912,16.94447 1.74587,13.25 z M 265.93403,287.87135 c 2.75,-0.58918 6.575,-1.50185 8.5,-2.02817 1.925,-0.52632 5.3,-1.33049 7.5,-1.78705 7.9856,-1.65722 13.01985,-3.11412 13.95,-4.03707 0.5225,-0.51846 1.99111,-0.94265 3.26357,-0.94265 1.27246,0 3.09496,-0.4038 4.05,-0.89734 1.51445,-0.78263 4.09274,-1.81559 12.73643,-5.10266 8.79527,-3.34472 12.57713,-5.02658 24,-10.67323 7.15,-3.53445 13.87371,-6.96639 14.94157,-7.62652 1.06786,-0.66014 4.30874,-2.66275 7.20196,-4.45025 2.89322,-1.7875 5.69451,-3.25 6.2251,-3.25 0.53059,0 1.1147,-0.3375 1.29804,-0.75 0.18333,-0.4125 3.57266,-2.94496 7.53183,-5.62769 3.95918,-2.68274 8.02347,-5.64627 9.03177,-6.58565 1.0083,-0.93937 3.8196,-3.14683 6.24734,-4.90548 10.10552,-7.3204 27.86892,-24.25225 38.94762,-37.12437 5.81325,-6.75431 10.07477,-13.85855 10.07477,-16.79533 0,-1.63157 -3.16381,-1.40107 -17.5,1.27496 -4.95,0.92398 -11.025,1.91581 -13.5,2.20407 -2.475,0.28826 -4.95,0.8837 -5.5,1.32321 -0.55,0.43951 -3.14303,1.11815 -5.7623,1.50808 -2.61926,0.38994 -5.00832,1.10705 -5.30901,1.59359 -0.3007,0.48653 -1.51762,0.88461 -2.70427,0.88461 -1.89074,0 -6.69398,1.44907 -13.22442,3.98962 -1.1,0.42793 -4.5875,1.59852 -7.75,2.60131 -3.1625,1.00278 -5.75,2.18005 -5.75,2.61616 0,0.4361 -0.90611,0.79291 -2.01357,0.79291 -1.10746,0 -2.79496,0.39462 -3.75,0.87694 -9.28562,4.68949 -18.95878,9.12306 -19.90466,9.12306 -0.64081,0 -1.3151,0.3375 -1.49844,0.75 -0.18333,0.4125 -3.25833,2.23535 -6.83333,4.05078 -7.10513,3.60808 -10.23007,5.38991 -11,6.27216 -0.275,0.31512 -1.175,0.87476 -2,1.24364 -1.71696,0.7677 -5.25836,2.94178 -6,3.68342 -0.275,0.275 -3.66762,2.62054 -7.53915,5.21231 -12.00597,8.03731 -27.14073,20.58599 -38.94167,32.28769 -8.60712,8.53475 -27.51918,29.80987 -27.51918,30.9577 0,1.59184 20.16532,1.1229 28.5,-0.66276 z m 443.5,0.71267 c 0,-1.19403 -18.68584,-22.24854 -27.51918,-31.00761 -7.00076,-6.94189 -16.48404,-15.40449 -22.07451,-19.69865 -1.59847,-1.22782 -3.13131,-2.5287 -3.40631,-2.89084 -0.275,-0.36214 -4.775,-3.63579 -10,-7.27478 -5.225,-3.63899 -9.95,-6.9809 -10.5,-7.42647 -0.55,-0.44556 -1.675,-1.12206 -2.5,-1.50332 -1.76129,-0.81396 -5.2836,-2.98954 -6,-3.70594 -0.86027,-0.86027 -4.26565,-2.77943 -11,-6.19922 -3.575,-1.81543 -6.65,-3.63828 -6.83333,-4.05078 -0.18334,-0.4125 -0.85763,-0.75 -1.49844,-0.75 -0.94588,0 -10.61904,-4.43357 -19.90466,-9.12306 -0.95504,-0.48232 -2.64254,-0.87694 -3.75,-0.87694 -1.10746,0 -2.01357,-0.35681 -2.01357,-0.79291 0,-0.43611 -2.5875,-1.61338 -5.75,-2.61616 -3.1625,-1.00279 -6.65,-2.17338 -7.75,-2.60131 -6.53044,-2.54055 -11.33368,-3.98962 -13.22442,-3.98962 -1.18665,0 -2.40357,-0.39808 -2.70427,-0.88461 -0.30069,-0.48654 -2.68975,-1.20365 -5.30901,-1.59359 -2.61927,-0.38993 -5.2123,-1.06857 -5.7623,-1.50808 -0.55,-0.43951 -3.025,-1.03495 -5.5,-1.32321 -5.61315,-0.65375 -20.65422,-3.33141 -24,-4.27256 l -2.5,-0.70324 2.59664,2.89264 c 1.42815,1.59096 3.24291,3.86573 4.03279,5.05505 6.5382,9.84448 35.28104,38.33275 47.89296,47.46878 2.42774,1.75865 5.23904,3.96611 6.24734,4.90548 1.0083,0.93938 5.07259,3.90291 9.03177,6.58565 3.95917,2.68273 7.3485,5.21519 7.53183,5.62769 0.18334,0.4125 0.7371,0.75 1.23059,0.75 0.49348,0 3.27945,1.4625 6.19103,3.25 2.91158,1.7875 6.18282,3.79344 7.26942,4.45764 5.5551,3.39564 34.90101,17.29236 36.51653,17.29236 0.54243,0 1.76763,0.41217 2.72267,0.91593 3.93758,2.077 9.1363,4.08407 10.57854,4.08407 0.84692,0 1.81797,0.45 2.15789,1 0.33992,0.55 1.85148,1 3.35902,1 1.50754,0 3.16848,0.42419 3.69098,0.94265 0.90556,0.89855 5.17075,2.14964 13.95,4.09189 12.29385,2.71979 17.98637,4.11849 18.3853,4.51742 0.61338,0.61338 16.1147,0.57072 16.1147,-0.0444 z"
       id="path5878"
       inkscape:connector-curvature="0" />
  </g>
  <path
     style="fill:#000000"
     d=""
     id="path5858"
     inkscape:connector-curvature="0" />
</svg>
